<?xml version="1.0" encoding="utf-8"?>
<!-- Generator: Adobe Illustrator 27.7.0, SVG Export Plug-In . SVG Version: 6.00 Build 0)  -->
<svg version="1.1" xmlns="http://www.w3.org/2000/svg" xmlns:xlink="http://www.w3.org/1999/xlink" x="0px" y="0px"
	 viewBox="0 0 200 55" style="enable-background:new 0 0 200 55;" xml:space="preserve">
<style type="text/css">
	.st0{fill:#0071BC;}
	.st1{font-family:'SegoePrint';}
	.st2{font-size:19px;}
	.st3{fill:none;stroke:#0071BC;stroke-width:2;stroke-linecap:round;stroke-linejoin:round;stroke-miterlimit:10;}
	.st4{fill:none;stroke:#29ABE2;stroke-width:2;stroke-linecap:round;stroke-linejoin:round;stroke-miterlimit:10;}
</style>
<g id="レイヤー_1">
	<text transform="matrix(1 0 0 1 13.2837 43.8438)" class="st0 st1 st2">Palau Blue Diving</text>
</g>
<g id="レイヤー_2">
	<path class="st3" d="M42,25.5c0,0,1,2,20-3s13-9,10-13s13-1,21,8c5.3,5.97,15,9,15,9"/>
	<path class="st4" d="M63,25.5c0,0,1,2,20-3s13-9,10-13s13-1,21,8c5.3,5.97,15,9,15,9"/>
	<path class="st3" d="M84,25.5c0,0,1,2,20-3s13-9,10-13s13-1,21,8c5.3,5.97,15,9,15,9"/>
</g>
</svg>
