<?xml version="1.0" encoding="utf-8"?>
<!-- Generator: Adobe Illustrator 27.7.0, SVG Export Plug-In . SVG Version: 6.00 Build 0)  -->
<svg version="1.1" xmlns="http://www.w3.org/2000/svg" xmlns:xlink="http://www.w3.org/1999/xlink" x="0px" y="0px"
	 viewBox="0 0 1440 1200" style="enable-background:new 0 0 1440 1200;" xml:space="preserve">
<style type="text/css">
	.st0{fill:#27acd9;}
	.st1{fill:#0087E0;}
	.st2{fill:#2739d9;}
</style>
<g id="レイヤー_1">
	<path class="st0" d="M0,317l30-16c30-16,90-48,150-37.3c60,10.3,120,64.3,180,74.6C420,349,480,317,540,285s120-64,180-85.3
		C780,178,840,168,900,173s120,27,180,53.3c60,26.7,120,58.7,180,69.4c60,10.3,120,0.3,150-5.4l30-5.3v128h-30c-30,0-90,0-150,0
		s-120,0-180,0s-120,0-180,0s-120,0-180,0s-120,0-180,0s-120,0-180,0s-120,0-180,0s-120,0-150,0H0V317z"/>
	<path class="st1" d="M0,364l30-16c30-16,90-48,150-37.3c60,10.3,120,64.3,180,74.6C420,396,480,364,540,332s120-64,180-85.3
		C780,225,840,215,900,220s120,27,180,53.3c60,26.7,120,58.7,180,69.4c60,10.3,120,0.3,150-5.4l30-5.3v128h-30c-30,0-90,0-150,0
		s-120,0-180,0s-120,0-180,0s-120,0-180,0s-120,0-180,0s-120,0-180,0s-120,0-180,0s-120,0-150,0H0V364z"/>
	<path class="st2" d="M0,411l30-16c30-16,90-48,150-37.3c60,10.3,120,64.3,180,74.6C420,443,480,411,540,379s120-64,180-85.3
		C780,272,840,262,900,267s120,27,180,53.3c60,26.7,120,58.7,180,69.4c60,10.3,120,0.3,150-5.4l30-5.3v128h-30c-30,0-90,0-150,0
		s-120,0-180,0s-120,0-180,0s-120,0-180,0s-120,0-180,0s-120,0-180,0s-120,0-180,0s-120,0-150,0H0V411z"/>
	<path class="st0" d="M0,458l30-16c30-16,90-48,150-37.3c60,10.3,120,64.3,180,74.6C420,490,480,458,540,426s120-64,180-85.3
		C780,319,840,309,900,314s120,27,180,53.3c60,26.7,120,58.7,180,69.4c60,10.3,120,0.3,150-5.4l30-5.3v774h-30c-30,0-90,0-150,0
		s-120,0-180,0s-120,0-180,0s-120,0-180,0s-120,0-180,0s-120,0-180,0s-120,0-180,0s-150,0-150,0H0V458z"/>
</g>
<g id="レイヤー_2">
</g>
</svg>
